<?xml version="1.0" encoding="UTF-8"?>
<svg id="Layer_1" xmlns="http://www.w3.org/2000/svg" xmlns:xlink="http://www.w3.org/1999/xlink" version="1.1" viewBox="0 0 2519 2519">
  <!-- Generator: Adobe Illustrator 29.3.1, SVG Export Plug-In . SVG Version: 2.1.0 Build 151)  -->
  <defs>
    <style>
      .st0 {
        fill: none;
      }

      .st0, .st1, .st2, .st3, .st4, .st5, .st6, .st7, .st8 {
        stroke: #000;
      }

      .st0, .st1, .st3, .st4, .st5, .st6, .st7, .st8 {
        stroke-linecap: round;
        stroke-linejoin: round;
        stroke-width: 8px;
      }

      .st1, .st9, .st3, .st4, .st5, .st10, .st6, .st7, .st11, .st12, .st13, .st8 {
        fill-rule: evenodd;
      }

      .st1, .st11 {
        fill: #ffad2a;
      }

      .st2 {
        fill: #fff;
        stroke-miterlimit: 10;
        stroke-width: 10px;
      }

      .st9, .st7 {
        fill: #527bff;
      }

      .st3, .st13 {
        fill: #fa0000;
      }

      .st4 {
        fill: #0031ff;
      }

      .st5, .st10 {
        fill: #73ffeb;
      }

      .st6 {
        fill-opacity: 0;
        stroke-opacity: 0;
      }

      .st12, .st8 {
        fill: #0fb260;
      }
    </style>
  </defs>
  <rect class="st2" x="897.5" y="1604" width="760" height="721"/>
  <g>
    <g>
      <line class="st0" x1="1968.3" y1="1423.9" x2="2213.8" y2="1860.1" vector-effect="none"/>
      <line class="st0" x1="2104.8" y1="1613.3" x2="2055.7" y2="1643.3" vector-effect="none"/>
    </g>
    <g>
      <line class="st0" x1="1968.3" y1="1423.9" x2="1733" y2="753.9" vector-effect="none"/>
      <line class="st0" x1="1887.7" y1="1102.8" x2="1829.9" y2="1122.3" vector-effect="none"/>
      <line class="st0" x1="1875" y1="1074.6" x2="1817.2" y2="1094.1" vector-effect="none"/>
    </g>
    <g>
      <line class="st0" x1="1650.2" y1="280.9" x2="1733" y2="753.9" vector-effect="none"/>
      <line class="st0" x1="1656.1" y1="502.3" x2="1716.6" y2="494.6" vector-effect="none"/>
    </g>
    <g>
      <line class="st0" x1="896.7" y1="328.5" x2="1123.5" y2="811" vector-effect="none"/>
      <line class="st0" x1="1029.8" y1="540.6" x2="973.3" y2="566" vector-effect="none"/>
    </g>
    <g>
      <line class="st0" x1="1123.5" y1="811" x2="472.4" y2="711.9" vector-effect="none"/>
      <line class="st0" x1="831.8" y1="735.6" x2="820.4" y2="794.3" vector-effect="none"/>
      <line class="st0" x1="799.5" y1="730.6" x2="788.1" y2="789.3" vector-effect="none"/>
    </g>
    <g>
      <line class="st0" x1="542" y1="1465.7" x2="240.1" y2="1788.1" vector-effect="none"/>
      <line class="st0" x1="375.6" y1="1594.1" x2="421.9" y2="1633.2" vector-effect="none"/>
    </g>
    <g>
      <line class="st0" x1="542" y1="1465.7" x2="1123.5" y2="811" vector-effect="none"/>
      <line class="st0" x1="767.9" y1="1161.3" x2="814.2" y2="1200.4" vector-effect="none"/>
      <line class="st0" x1="787.4" y1="1138.1" x2="833.8" y2="1177.3" vector-effect="none"/>
      <line class="st0" x1="807" y1="1114.9" x2="853.4" y2="1154.1" vector-effect="none"/>
      <line class="st0" x1="826.6" y1="1091.7" x2="873" y2="1130.9" vector-effect="none"/>
    </g>
    <g>
      <line class="st0" x1="1733" y1="753.9" x2="1123.5" y2="811" vector-effect="none"/>
      <line class="st0" x1="1438.1" y1="745.5" x2="1439.9" y2="807.4" vector-effect="none"/>
    </g>
    <g>
      <line class="st0" x1="1733" y1="753.9" x2="2118.5" y2="412.6" vector-effect="none"/>
      <line class="st0" x1="1888.9" y1="567" x2="1930.7" y2="613.4" vector-effect="none"/>
    </g>
    <g>
      <line class="st0" x1="1733" y1="753.9" x2="2187.6" y2="889" vector-effect="none"/>
      <line class="st0" x1="1951.1" y1="783.1" x2="1933.8" y2="843.1" vector-effect="none"/>
    </g>
    <path class="st6" d="M2012.7,1413.7c5.6,24.5-9.6,48.9-34.1,54.6-24.5,5.6-48.9-9.6-54.6-34.1-5.6-24.5,9.6-48.9,34.1-54.6,24.5-5.6,48.9,9.6,54.6,34.1" vector-effect="non-scaling-stroke"/>
    <path class="st3" d="M2012.7,1413.7c5.6,24.5-9.6,48.9-34.1,54.6-24.5,5.6-48.9-9.6-54.6-34.1-5.6-24.5,9.6-48.9,34.1-54.6,24.5-5.6,48.9,9.6,54.6,34.1" vector-effect="none"/>
    <path class="st6" d="M1694.6,270.7c5.6,24.5-9.6,48.9-34.1,54.6-24.5,5.6-48.9-9.6-54.6-34.1-5.6-24.5,9.6-48.9,34.1-54.6,24.5-5.6,48.9,9.6,54.6,34.1" vector-effect="non-scaling-stroke"/>
    <path class="st3" d="M1650.2,280.9l44.4-10.2-44.4,10.2" vector-effect="none"/>
    <path class="st7" d="M1694.6,270.7c5.6,24.5-9.6,48.9-34.1,54.6-24.5,5.6-48.9-9.6-54.6-34.1-5.6-24.5,9.6-48.9,34.1-54.6,24.5-5.6,48.9,9.6,54.6,34.1" vector-effect="none"/>
    <path class="st6" d="M941,318.3c5.6,24.5-9.6,48.9-34.1,54.6-24.5,5.6-48.9-9.6-54.6-34.1s9.6-48.9,34.1-54.6c24.5-5.6,48.9,9.6,54.6,34.1" vector-effect="non-scaling-stroke"/>
    <path class="st3" d="M896.7,328.5l44.4-10.2-44.4,10.2" vector-effect="none"/>
    <path class="st4" d="M896.7,328.5l44.4-10.2-44.4,10.2" vector-effect="none"/>
    <path class="st1" d="M941,318.3c5.6,24.5-9.6,48.9-34.1,54.6-24.5,5.6-48.9-9.6-54.6-34.1s9.6-48.9,34.1-54.6c24.5-5.6,48.9,9.6,54.6,34.1" vector-effect="none"/>
    <path class="st6" d="M516.7,701.7c5.6,24.5-9.6,48.9-34.1,54.6-24.5,5.6-48.9-9.6-54.6-34.1-5.6-24.5,9.6-48.9,34.1-54.6,24.5-5.6,48.9,9.6,54.6,34.1" vector-effect="non-scaling-stroke"/>
    <path class="st3" d="M472.4,711.9l44.4-10.2-44.4,10.2" vector-effect="none"/>
    <path class="st4" d="M472.4,711.9l44.4-10.2-44.4,10.2" vector-effect="none"/>
    <path class="st1" d="M472.4,711.9l44.4-10.2-44.4,10.2" vector-effect="none"/>
    <path class="st5" d="M516.7,701.7c5.6,24.5-9.6,48.9-34.1,54.6-24.5,5.6-48.9-9.6-54.6-34.1-5.6-24.5,9.6-48.9,34.1-54.6,24.5-5.6,48.9,9.6,54.6,34.1" vector-effect="none"/>
    <path class="st6" d="M1200.3,793.3c9.8,42.4-16.7,84.7-59.1,94.5s-84.7-16.7-94.5-59.1c-9.8-42.4,16.7-84.7,59.1-94.5,42.4-9.8,84.7,16.7,94.5,59.1" vector-effect="non-scaling-stroke"/>
    <path class="st3" d="M1123.5,811l76.8-17.7-76.8,17.7" vector-effect="none"/>
    <path class="st7" d="M1123.5,811l76.8-17.7c-9.8-42.4-52.1-68.9-94.5-59.1-14,3.2-26.3,10-36.1,19.1l53.7,57.7" vector-effect="none"/>
    <path class="st1" d="M1123.5,811l-53.7-57.7c-19.9,18.6-29.6,46.9-23.1,75.4,9.8,42.4,52.1,68.9,94.5,59.1s68.9-52.1,59.1-94.5l-76.8,17.7" vector-effect="none"/>
    <path class="st6" d="M2276.6,1845.6c8,34.6-13.6,69.2-48.3,77.2-34.6,8-69.2-13.6-77.2-48.3-8-34.6,13.6-69.2,48.3-77.2,34.6-8,69.2,13.6,77.2,48.3" vector-effect="non-scaling-stroke"/>
    <path class="st3" d="M2213.8,1860.1l62.7-14.4-62.7,14.4" vector-effect="none"/>
    <path class="st7" d="M2213.8,1860.1l62.7-14.4c-8-34.6-42.5-56.3-77.2-48.3-34.6,8-56.3,42.5-48.3,77.2l62.7-14.4" vector-effect="none"/>
    <path class="st1" d="M2213.8,1860.1l-62.7,14.4,62.7-14.4" vector-effect="none"/>
    <path class="st5" d="M2213.8,1860.1l-62.7,14.4c8,34.6,42.5,56.3,77.2,48.3,34.6-8,56.3-42.5,48.3-77.2l-62.7,14.4" vector-effect="none"/>
    <path class="st6" d="M2162.8,402.4c5.6,24.5-9.6,48.9-34.1,54.6-24.5,5.6-48.9-9.6-54.6-34.1-5.6-24.5,9.6-48.9,34.1-54.6,24.5-5.6,48.9,9.6,54.6,34.1" vector-effect="non-scaling-stroke"/>
    <path class="st3" d="M2118.5,412.6l44.4-10.2-44.4,10.2" vector-effect="none"/>
    <path class="st7" d="M2162.8,402.4c5.6,24.5-9.6,48.9-34.1,54.6-24.5,5.6-48.9-9.6-54.6-34.1-5.6-24.5,9.6-48.9,34.1-54.6,24.5-5.6,48.9,9.6,54.6,34.1" vector-effect="none"/>
    <path class="st6" d="M586.4,1455.4c5.6,24.5-9.6,48.9-34.1,54.6-24.5,5.6-48.9-9.6-54.6-34.1-5.6-24.5,9.6-48.9,34.1-54.6s48.9,9.6,54.6,34.1" vector-effect="non-scaling-stroke"/>
    <path class="st3" d="M542,1465.7l44.4-10.2-44.4,10.2" vector-effect="none"/>
    <path class="st4" d="M542,1465.7l44.4-10.2-44.4,10.2" vector-effect="none"/>
    <path class="st1" d="M542,1465.7l44.4-10.2-44.4,10.2" vector-effect="none"/>
    <path class="st5" d="M542,1465.7l44.4-10.2-44.4,10.2" vector-effect="none"/>
    <path class="st8" d="M586.4,1455.4c5.6,24.5-9.6,48.9-34.1,54.6-24.5,5.6-48.9-9.6-54.6-34.1-5.6-24.5,9.6-48.9,34.1-54.6s48.9,9.6,54.6,34.1" vector-effect="none"/>
    <path class="st6" d="M2231.9,878.8c5.6,24.5-9.6,48.9-34.1,54.6-24.5,5.6-48.9-9.6-54.6-34.1-5.6-24.5,9.6-48.9,34.1-54.6,24.5-5.6,48.9,9.6,54.6,34.1" vector-effect="non-scaling-stroke"/>
    <path class="st3" d="M2187.6,889l44.4-10.2-44.4,10.2" vector-effect="none"/>
    <path class="st7" d="M2231.9,878.8c5.6,24.5-9.6,48.9-34.1,54.6-24.5,5.6-48.9-9.6-54.6-34.1-5.6-24.5,9.6-48.9,34.1-54.6,24.5-5.6,48.9,9.6,54.6,34.1" vector-effect="none"/>
    <path class="st6" d="M1777.4,743.7c5.6,24.5-9.6,48.9-34.1,54.6-24.5,5.6-48.9-9.6-54.6-34.1-5.6-24.5,9.6-48.9,34.1-54.6,24.5-5.6,48.9,9.6,54.6,34.1" vector-effect="non-scaling-stroke"/>
    <path class="st3" d="M1733,753.9l44.4-10.2-44.4,10.2" vector-effect="none"/>
    <path class="st7" d="M1777.4,743.7c5.6,24.5-9.6,48.9-34.1,54.6-24.5,5.6-48.9-9.6-54.6-34.1-5.6-24.5,9.6-48.9,34.1-54.6,24.5-5.6,48.9,9.6,54.6,34.1" vector-effect="none"/>
    <path class="st6" d="M284.5,1777.9c5.6,24.5-9.6,48.9-34.1,54.6-24.5,5.6-48.9-9.6-54.6-34.1-5.6-24.5,9.6-48.9,34.1-54.6,24.5-5.6,48.9,9.6,54.6,34.1" vector-effect="non-scaling-stroke"/>
    <path class="st3" d="M240.1,1788.1l44.4-10.2-44.4,10.2" vector-effect="none"/>
    <path class="st4" d="M240.1,1788.1l44.4-10.2-44.4,10.2" vector-effect="none"/>
    <path class="st1" d="M240.1,1788.1l44.4-10.2-44.4,10.2" vector-effect="none"/>
    <path class="st5" d="M240.1,1788.1l44.4-10.2-44.4,10.2" vector-effect="none"/>
    <path class="st8" d="M284.5,1777.9c5.6,24.5-9.6,48.9-34.1,54.6-24.5,5.6-48.9-9.6-54.6-34.1-5.6-24.5,9.6-48.9,34.1-54.6,24.5-5.6,48.9,9.6,54.6,34.1" vector-effect="none"/>
  </g>
  <g>
    <path d="M1997.5,1768v45.4c0,6.3-2,11.5-5.9,15.5-3.9,4-9.2,6.3-15.9,6.7h-2.3c-7.3,0-13-1.9-17.4-5.8s-6.5-9.4-6.6-16.3v-45.5h8v45.3c0,4.8,1.3,8.6,4,11.3,2.7,2.7,6.5,4,11.5,4s8.9-1.3,11.5-4c2.7-2.7,4-6.4,4-11.2v-45.3h9Z"/>
    <path d="M2027.8,1803.8l-8.3,8.5v22.6h-9v-67h9v33.1l30.3-33.1h10.9l-26.9,29.6,29,37.4h-10.8l-24.2-31.2Z"/>
    <path d="M2102.5,1813h9v6h-8v16h-9v-16h-31v-5l30-46h9v45ZM2073.7,1813h20.8v-32.8l-1,1.8-19.8,30.9Z"/>
  </g>
  <g>
    <path d="M2159.5,991v45.4c0,6.3-2,11.5-5.9,15.5-3.9,4-9.2,6.3-15.9,6.7h-2.3c-7.3,0-13-1.9-17.4-5.8s-6.5-9.4-6.6-16.3v-45.5h8v45.3c0,4.8,1.3,8.6,4,11.3,2.7,2.7,6.5,4,11.5,4s8.9-1.3,11.5-4c2.7-2.7,4-6.4,4-11.2v-45.3h9Z"/>
    <path d="M2189.8,1026.8l-8.3,8.5v22.6h-9v-67h9v33.1l30.3-33.1h10.9l-26.9,29.6,29,37.4h-10.8l-24.2-31.2Z"/>
    <path d="M2262.5,991v7h-1.6c-6.6.1-11.9,2-15.9,5.7-3.9,3.7-6.2,8.9-6.8,15.6,3.5-3.9,8.4-5.9,14.5-5.9s10.5,2,14,6c3.5,4,5.2,9.1,5.2,15.4s-1.9,12-5.7,16.1-8.8,6-15.2,6-11.6-2.4-15.6-7.2c-4-4.8-6-10.9-6-18.4v-3.2c0-11.9,2.6-21.1,7.9-27.4s13.1-9.5,23.6-9.7h1.5ZM2251.6,1021.3c-2.9,0-5.6.9-8,2.6-2.4,1.7-4.1,3.9-5.1,6.6v3.1c0,5.5,1.2,9.9,3.7,13.3,2.5,3.4,5.6,5,9.3,5s6.8-1.4,9-4.2c2.2-2.8,3.3-6.5,3.3-11.1s-1.1-8.3-3.3-11.1c-2.2-2.8-5.2-4.2-8.8-4.2Z"/>
  </g>
  <g>
    <path d="M2106.5,246v45.4c0,6.3-2,11.5-5.9,15.5-3.9,4-9.2,6.3-15.9,6.7h-2.3c-7.3,0-13-1.9-17.4-5.8-4.3-3.9-6.5-9.4-6.6-16.3v-45.5h8v45.3c0,4.8,1.3,8.6,4,11.3,2.7,2.7,6.5,4,11.5,4s8.9-1.3,11.5-4,4-6.4,4-11.2v-45.3h9Z"/>
    <path d="M2136.8,280.8l-8.3,8.5v22.6h-9v-67h9v33.1l30.3-33.1h10.9l-26.9,29.6,29,37.4h-10.8l-24.2-31.2Z"/>
    <path d="M2188.5,275h6.5c4.1,0,7.3-1.1,9.7-3.2,2.3-2.1,3.5-4.9,3.5-8.5,0-8-4-12-12-12s-6.7,1.1-9,3.2c-2.2,2.1-3.4,5-3.4,8.5h-8.6c0-5.3,2-9.8,5.9-13.3,3.9-3.5,8.9-5.3,14.9-5.3s11.4,1.7,15,5.1c3.6,3.4,5.4,8.1,5.4,14.1s-1,5.8-2.9,8.5c-1.9,2.8-4.5,4.8-7.8,6.2,3.7,1.2,6.6,3.1,8.6,5.8,2,2.7,3,6,3,10,0,6.1-2,10.9-5.9,14.4-4,3.6-9.1,5.3-15.4,5.3s-11.5-1.7-15.5-5.1c-4-3.4-6-8-6-13.6h8.7c0,3.5,1.1,6.3,3.4,8.5s5.4,3.2,9.2,3.2,7.2-1.1,9.4-3.2c2.2-2.1,3.3-5.2,3.3-9.2s-1.2-6.9-3.6-9c-2.4-2.1-5.8-3.2-10.3-3.2h-6.4v-7Z"/>
  </g>
  <g>
    <path d="M1613.5,113v45.4c0,6.3-2,11.5-5.9,15.5-3.9,4-9.2,6.3-15.9,6.7h-2.3c-7.3,0-13-1.9-17.4-5.8s-6.5-9.4-6.6-16.3v-45.5h9v45.3c0,4.8,1.3,8.6,4,11.3,2.7,2.7,6.5,4,11.5,4s8.9-1.3,11.5-4c2.7-2.7,4-6.4,4-11.2v-45.3h8Z"/>
    <path d="M1644.8,148.8l-8.3,8.5v22.6h-9v-67h9v33.1l30.3-33.1h10.9l-26.9,29.6,29,37.4h-10.8l-24.2-31.2Z"/>
    <path d="M1727.5,180h-44v-6.2l23-25.6c3.4-3.9,5.8-7,7.1-9.4,1.3-2.4,1.9-4.9,1.9-7.5s-1.1-6.3-3.2-8.5c-2.1-2.2-4.9-3.3-8.4-3.3s-7.5,1.2-9.8,3.6-3.5,5.7-3.5,10h-8.4c0-6.1,2-11.1,5.9-14.8,3.9-3.8,9.2-5.7,15.8-5.7s11.1,1.6,14.7,4.9c3.6,3.2,5.4,7.6,5.4,12.9s-4.2,14.3-12.5,23.4l-17.8,19.3h33.8v7Z"/>
  </g>
  <g>
    <path d="M1605.5,857v45.4c0,6.3-2,11.5-5.9,15.5-3.9,4-9.2,6.3-15.9,6.7h-2.3c-7.3,0-13-1.9-17.4-5.8-4.3-3.9-6.5-9.4-6.6-16.3v-45.5h8v45.3c0,4.8,1.3,8.6,4,11.3,2.7,2.7,6.5,4,11.5,4s8.9-1.3,11.5-4,4-6.4,4-11.2v-45.3h9Z"/>
    <path d="M1635.8,892.8l-8.3,8.5v22.6h-9v-67h9v33.1l30.3-33.1h10.9l-26.9,29.6,29,37.4h-10.8l-24.2-31.2Z"/>
    <path d="M1703.5,923h-9v-56.6l-17,6.3v-7.6l24.7-9.1h1.3v67Z"/>
  </g>
  <g>
    <path d="M1189.5,600v45.4c0,6.3-2,11.5-5.9,15.5-3.9,4-9.2,6.3-15.9,6.7h-2.3c-7.3,0-13-1.9-17.4-5.8-4.3-3.9-6.5-9.4-6.6-16.3v-45.5h9v45.3c0,4.8,1.3,8.6,4,11.3,2.7,2.7,6.5,4,11.5,4s8.9-1.3,11.5-4c2.7-2.7,4-6.4,4-11.2v-45.3h8Z"/>
    <path d="M1220.8,634.8l-8.3,8.5v22.6h-9v-67h9v33.1l30.3-33.1h10.9l-26.9,29.6,29,37.4h-10.8l-24.2-31.2Z"/>
    <path d="M1264.1,633.2l3.4-33.2h34.1v8h-26.8l-2,18c3.2-1.9,6.9-2.9,11-2.9,6,0,10.8,2,14.4,6,3.5,4,5.3,9.4,5.3,16.2s-1.8,12.2-5.5,16.1c-3.7,3.9-8.8,5.9-15.4,5.9s-10.6-1.6-14.3-4.9c-3.7-3.2-5.8-7.7-6.3-13.5h7.8c.5,3.8,1.9,6.7,4.1,8.6,2.2,1.9,5.1,2.9,8.7,2.9s7-1.3,9.2-4c2.2-2.7,3.4-6.4,3.4-11.1s-1.2-8-3.6-10.7c-2.4-2.7-5.6-4-9.7-4s-6.6.8-8.7,2.4l-2.2,1.8-6.8-1.7Z"/>
  </g>
  <g>
    <path d="M827,199.6c-7.5-2.2-13-4.8-16.4-8-3.4-3.2-5.1-7-5.1-11.7s2.1-9.6,6.3-13c4.2-3.4,9.6-5.1,16.3-5.1s8.6.9,12.2,2.6c3.6,1.8,6.3,4.2,8.3,7.3s2.9,6.5,2.9,10.2h-8.8c0-4-1.3-7.2-3.8-9.5s-6.2-3.5-10.8-3.5-7.7,1-10.1,2.9c-2.4,1.9-3.6,4.6-3.6,7.9s1.1,5,3.4,6.9c2.3,1.9,6.2,3.6,11.7,5.1s9.9,3.3,13,5.1c3.1,1.9,5.4,4.1,6.9,6.6,1.5,2.5,2.3,5.4,2.3,8.8,0,5.4-2.1,9.7-6.3,12.9-4.2,3.2-9.8,4.9-16.9,4.9s-8.8-.9-12.8-2.6c-4-1.8-7-4.1-9.2-7.2-2.1-3-3.2-6.5-3.2-10.4h8.8c0,4,1.5,7.2,4.5,9.5,3,2.3,6.9,3.5,11.9,3.5s8.2-.9,10.6-2.8c2.5-1.9,3.7-4.5,3.7-7.7s-1.1-5.8-3.4-7.6c-2.3-1.8-6.4-3.5-12.4-5.3Z"/>
    <path d="M871.5,203v26h-9v-67h25.2c7.5,0,13.3,1.9,17.6,5.6,4.2,3.8,6.4,8.7,6.4,14.9s-2.1,11.6-6.2,15.1c-4.1,3.5-10.1,5.3-17.8,5.3h-16.1ZM871.5,196h15.7c4.7,0,8.2-1.1,10.7-3.3,2.5-2.2,3.7-5.4,3.7-9.5s-1.2-7.1-3.7-9.5c-2.5-2.4-5.9-3.6-10.2-3.7h-16.2v26Z"/>
    <path d="M951.6,212h-27.2l-6.1,17h-9.7l25.6-67h7.7l25.6,67h-9.7l-6.2-17ZM926.6,205h22.7l-11.4-31.3-11.3,31.3Z"/>
    <path d="M1001.5,229h-8v-56.6l-17,6.3v-7.6l23.7-9.1h1.3v67Z"/>
  </g>
  <g>
    <path d="M1096.2,990.6c-7.5-2.2-13-4.8-16.4-8-3.4-3.2-5.1-7-5.1-11.7s2.1-9.6,6.3-13c4.2-3.4,9.6-5.1,16.3-5.1s8.6.9,12.2,2.6c3.6,1.8,6.3,4.2,8.3,7.3s2.9,6.5,2.9,10.2h-8.8c0-4-1.3-7.2-3.8-9.5s-6.2-3.5-10.8-3.5-7.7,1-10.1,2.9c-2.4,1.9-3.6,4.6-3.6,7.9s1.1,5,3.4,6.9c2.3,1.9,6.2,3.6,11.7,5.1s9.9,3.3,13,5.1c3.1,1.9,5.4,4.1,6.9,6.6,1.5,2.5,2.3,5.4,2.3,8.8,0,5.4-2.1,9.7-6.3,12.9-4.2,3.2-9.8,4.9-16.9,4.9s-8.8-.9-12.8-2.6c-4-1.8-7-4.1-9.2-7.2-2.1-3-3.2-6.5-3.2-10.4h8.8c0,4,1.5,7.2,4.5,9.5,3,2.3,6.9,3.5,11.9,3.5s8.2-.9,10.6-2.8c2.5-1.9,3.7-4.5,3.7-7.7s-1.1-5.8-3.4-7.6c-2.3-1.8-6.4-3.5-12.4-5.3Z"/>
    <path d="M1140.5,995v26h-9v-67h25.2c7.5,0,13.3,1.9,17.6,5.6,4.2,3.8,6.4,8.7,6.4,14.9s-2.1,11.6-6.2,15.1c-4.1,3.5-10.1,5.3-17.8,5.3h-16.1ZM1140.5,987h15.7c4.7,0,8.2-1.1,10.7-3.3,2.5-2.2,3.7-5.4,3.7-9.5s-1.2-7.1-3.7-9.5c-2.5-2.4-5.9-3.6-10.2-3.7h-16.2v26Z"/>
    <path d="M1220.8,1003h-27.2l-6.1,17h-9.3l25.2-66h7.6l25.2,66h-9.2l-6.2-17ZM1195.8,996h22.7l-11.4-31.3-11.3,31.3Z"/>
    <path d="M1286.5,1021h-44v-6.2l23-25.6c3.4-3.9,5.8-7,7.1-9.4,1.3-2.4,1.9-4.9,1.9-7.5s-1.1-6.3-3.2-8.5c-2.1-2.2-4.9-3.3-8.4-3.3s-7.5,1.2-9.8,3.6c-2.3,2.4-3.5,5.7-3.5,10h-8.4c0-6.1,2-11.1,5.9-14.8,3.9-3.8,9.2-5.7,15.8-5.7s11.1,1.6,14.7,4.9c3.6,3.2,5.4,7.6,5.4,12.9s-4.2,14.3-12.5,23.4l-17.8,19.3h33.8v7Z"/>
    <path d="M1096.2,1103.6c-7.5-2.2-13-4.8-16.4-8-3.4-3.2-5.1-7-5.1-11.7s2.1-9.6,6.3-13c4.2-3.4,9.6-5.1,16.3-5.1s8.6.9,12.2,2.6c3.6,1.8,6.3,4.2,8.3,7.3s2.9,6.5,2.9,10.2h-8.8c0-4-1.3-7.2-3.8-9.5s-6.2-3.5-10.8-3.5-7.7,1-10.1,2.9c-2.4,1.9-3.6,4.6-3.6,7.9s1.1,5,3.4,6.9c2.3,1.9,6.2,3.6,11.7,5.1s9.9,3.3,13,5.1c3.1,1.9,5.4,4.1,6.9,6.6,1.5,2.5,2.3,5.4,2.3,8.8,0,5.4-2.1,9.7-6.3,12.9-4.2,3.2-9.8,4.9-16.9,4.9s-8.8-.9-12.8-2.6c-4-1.8-7-4.1-9.2-7.2-2.1-3-3.2-6.5-3.2-10.4h8.8c0,4,1.5,7.2,4.5,9.5,3,2.3,6.9,3.5,11.9,3.5s8.2-.9,10.6-2.8c2.5-1.9,3.7-4.5,3.7-7.7s-1.1-5.8-3.4-7.6c-2.3-1.8-6.4-3.5-12.4-5.3Z"/>
    <path d="M1140.5,1107v26h-9v-67h25.2c7.5,0,13.3,1.9,17.6,5.6,4.2,3.8,6.4,8.7,6.4,14.9s-2.1,11.6-6.2,15.1c-4.1,3.5-10.1,5.3-17.8,5.3h-16.1ZM1140.5,1100h15.7c4.7,0,8.2-1.1,10.7-3.3,2.5-2.2,3.7-5.4,3.7-9.5s-1.2-7.1-3.7-9.5c-2.5-2.4-5.9-3.6-10.2-3.7h-16.2v26Z"/>
    <path d="M1220.8,1116h-27.2l-6.1,17h-9.7l25.6-67h7.7l25.6,67h-9.7l-6.2-17ZM1195.8,1109h22.7l-11.4-31.3-11.3,31.3Z"/>
    <path d="M1255.5,1096h6.5c4.1,0,7.3-1.1,9.7-3.2,2.3-2.1,3.5-4.9,3.5-8.5,0-8-4-12-12-12s-6.7,1.1-9,3.2-3.4,5-3.4,8.5h-8.8c0-5.3,2-9.8,5.9-13.3s8.9-5.3,14.9-5.3,11.4,1.7,15,5.1c3.6,3.4,5.4,8.1,5.4,14.1s-1,5.8-2.9,8.5c-1.9,2.8-4.5,4.8-7.8,6.2,3.7,1.2,6.6,3.1,8.6,5.8,2,2.7,3,6,3,10,0,6.1-2,10.9-5.9,14.4-4,3.6-9.1,5.3-15.4,5.3s-11.5-1.7-15.5-5.1c-4-3.4-6-8-6-13.6h9c0,3.5,1.1,6.3,3.4,8.5s5.4,3.2,9.2,3.2,7.2-1.1,9.4-3.2c2.2-2.1,3.3-5.2,3.3-9.2s-1.2-6.9-3.6-9c-2.4-2.1-5.8-3.2-10.3-3.2h-6.4v-7Z"/>
  </g>
  <g>
    <path d="M403,850.6c-7.5-2.2-13-4.8-16.4-8-3.4-3.2-5.1-7-5.1-11.7s2.1-9.6,6.3-13c4.2-3.4,9.6-5.1,16.3-5.1s8.6.9,12.2,2.6c3.6,1.8,6.3,4.2,8.3,7.3s2.9,6.5,2.9,10.2h-8.8c0-4-1.3-7.2-3.8-9.5s-6.2-3.5-10.8-3.5-7.7,1-10.1,2.9c-2.4,1.9-3.6,4.6-3.6,7.9s1.1,5,3.4,6.9,6.2,3.6,11.7,5.1,9.9,3.3,13,5.1c3.1,1.9,5.4,4.1,6.9,6.6,1.5,2.5,2.3,5.4,2.3,8.8,0,5.4-2.1,9.7-6.3,12.9-4.2,3.2-9.8,4.9-16.9,4.9s-8.8-.9-12.8-2.6c-4-1.8-7-4.1-9.2-7.2-2.1-3-3.2-6.5-3.2-10.4h8.8c0,4,1.5,7.2,4.5,9.5,3,2.3,6.9,3.5,11.9,3.5s8.2-.9,10.6-2.8c2.5-1.9,3.7-4.5,3.7-7.7s-1.1-5.8-3.4-7.6c-2.3-1.8-6.4-3.5-12.4-5.3Z"/>
    <path d="M453,859.9l1.3,8.8,1.9-8,13.3-46.8h7.5l12.9,46.8,1.8,8.1,1.4-9,10.4-45.8h8.9l-16.2,67h-8.1l-13.8-48.8-1.1-5.1-1.1,5.1-14.3,48.8h-8.1l-16.2-67h8.8l10.6,45.9Z"/>
    <path d="M531.5,881h-9v-67h9v67Z"/>
    <path d="M572.5,881h-9v-56.6l-17,6.3v-7.6l24.7-9.1h1.3v67Z"/>
  </g>
  <g>
    <path d="M2209.9,2017.6c-7.5-2.2-13-4.8-16.4-8-3.4-3.2-5.1-7-5.1-11.7s2.1-9.6,6.3-13c4.2-3.4,9.6-5.1,16.3-5.1s8.6.9,12.2,2.6c3.6,1.8,6.3,4.2,8.3,7.3s2.9,6.5,2.9,10.2h-8.8c0-4-1.3-7.2-3.8-9.5s-6.2-3.5-10.8-3.5-7.7,1-10.1,2.9c-2.4,1.9-3.6,4.6-3.6,7.9s1.1,5,3.4,6.9,6.2,3.6,11.7,5.1,9.9,3.3,13,5.1c3.1,1.9,5.4,4.1,6.9,6.6,1.5,2.5,2.3,5.4,2.3,8.8,0,5.4-2.1,9.7-6.3,12.9-4.2,3.2-9.8,4.9-16.9,4.9s-8.8-.9-12.8-2.6c-4-1.8-7-4.1-9.2-7.2-2.1-3-3.2-6.5-3.2-10.4h8.8c0,4,1.5,7.2,4.5,9.5,3,2.3,6.9,3.5,11.9,3.5s8.2-.9,10.6-2.8c2.5-1.9,3.7-4.5,3.7-7.7s-1.1-5.8-3.4-7.6c-2.3-1.8-6.4-3.5-12.4-5.3Z"/>
    <path d="M2259.9,2026.9l1.3,8.8,1.9-8,13.3-46.8h7.5l12.9,46.8,1.8,8.1,1.4-9,10.4-45.8h8.9l-16.2,67h-8.1l-13.8-48.8-1.1-5.1-1.1,5.1-14.3,48.8h-8.1l-16.2-67h8.8l10.6,45.9Z"/>
    <path d="M2338.5,2048h-9v-67h9v67Z"/>
    <path d="M2395.5,2047h-44v-6.2l23-25.6c3.4-3.9,5.8-7,7.1-9.4,1.3-2.4,1.9-4.9,1.9-7.5s-1.1-6.3-3.2-8.5c-2.1-2.2-4.9-3.3-8.4-3.3s-7.5,1.2-9.8,3.6c-2.3,2.4-3.5,5.7-3.5,10h-8.4c0-6.1,2-11.1,5.9-14.8,3.9-3.8,9.2-5.7,15.8-5.7s11.1,1.6,14.7,4.9c3.6,3.2,5.4,7.6,5.4,12.9s-4.2,14.3-12.5,23.4l-17.8,19.3h33.8v7Z"/>
  </g>
  <g>
    <path d="M441.5,1334h-28v29h-9v-67h42v8h-33v23h28v7Z"/>
    <path d="M465.5,1363h-9v-67h9v67Z"/>
    <path d="M532.5,1363h-7.8l-34.2-51.6v51.6h-9v-67h7.4l34.6,51.9v-51.9h9v67Z"/>
    <path d="M573.5,1363h-9v-56.6l-17,6.3v-7.6l24.7-9.1h1.3v67Z"/>
  </g>
  <g>
    <path d="M184.5,1934h-28v30h-9v-67h41v7h-33l1,23h28v7Z"/>
    <path d="M208.5,1964h-9v-67h9v67Z"/>
    <path d="M275.5,1964h-8.8l-34.2-51.6v51.6h-9v-67h8.4l34.6,51.9v-51.9h9v67Z"/>
    <path d="M332.5,1964h-44v-6.2l23-25.6c3.4-3.9,5.8-7,7.1-9.4,1.3-2.4,1.9-4.9,1.9-7.5s-1.1-6.3-3.2-8.5c-2.1-2.2-4.9-3.3-8.4-3.3s-7.5,1.2-9.8,3.6-3.5,5.7-3.5,10h-8.4c0-6.1,2-11.1,5.9-14.8,3.9-3.8,9.2-5.7,15.8-5.7s11.1,1.6,14.7,4.9c3.6,3.2,5.4,7.6,5.4,12.9s-4.2,14.3-12.5,23.4l-17.8,19.3h33.8v7Z"/>
  </g>
  <g>
    <path d="M1708.5,1461h-8.8l-34.2-51.6v51.6h-9v-67h8.4l34.6,51.9v-51.9h9v67Z"/>
    <path d="M1774.5,1429.3c0,6.6-1.1,12.3-3.3,17.2s-5.3,8.6-9.4,11.2-8.8,3.9-14.2,3.9-10-1.3-14.1-3.9c-4.1-2.6-7.3-6.3-9.5-11.1-2.3-4.8-3.4-10.4-3.5-16.7v-4.8c0-6.5,1.1-12.2,3.4-17.1,2.2-4.9,5.4-8.7,9.5-11.4,4.1-2.6,8.8-3.9,14.1-3.9s10.1,1.3,14.2,3.9,7.3,6.4,9.5,11.3c2.2,4.9,3.3,10.7,3.3,17.2v4.2ZM1765.5,1425c0-7.9-1.6-13.9-4.7-18.1-3.2-4.2-7.6-6.3-13.3-6.3s-9.9,2.1-13.1,6.3c-3.2,4.2-4.8,10.1-4.9,17.5v4.9c0,7.6,1.6,13.6,4.8,18,3.2,4.4,7.6,6.5,13.3,6.5s10-2.1,13.1-6.2c3.1-4.1,4.7-10,4.8-17.7v-4.9Z"/>
    <path d="M1812.3,1434h-15.8v27h-9v-67h22.3c7.6,0,13.5,1.7,17.5,5.2,4.1,3.4,6.1,8.4,6.1,15s-1.1,7.8-3.4,10.9c-2.3,3.1-5.4,5.4-9.5,6.9l15.9,28.4v.6h-9.5l-14.6-27ZM1796.5,1426h13.3c4.3,0,7.7-1.1,10.3-3.4s3.8-5.2,3.8-9-1.2-7.2-3.6-9.4c-2.4-2.2-5.9-3.3-10.5-3.3h-13.3v25Z"/>
    <path d="M1870.5,1460h-8v-56.6l-17,6.3v-7.6l23.7-9.1h1.3v67Z"/>
  </g>
  <g>
    <path d="M1178.5,1687v45.4c0,6.3-2,11.5-5.9,15.5-3.9,4-9.2,6.3-15.9,6.7h-2.3c-7.3,0-13-1.9-17.4-5.8-4.3-3.9-6.5-9.4-6.6-16.3v-45.5h8v45.3c0,4.8,1.3,8.6,4,11.3,2.7,2.7,6.5,4,11.5,4s8.9-1.3,11.5-4c2.7-2.7,4-6.4,4-11.2v-45.3h9Z"/>
    <path d="M1208.8,1722.8l-8.3,8.5v22.6h-9v-67h9v33.1l30.3-33.1h10.9l-26.9,29.6,29,37.4h-10.8l-24.2-31.2Z"/>
  </g>
  <g>
    <path d="M1182.5,1869h-7.8l-34.2-51.6v51.6h-9v-67h7.4l34.6,51.9v-51.9h9v67Z"/>
    <path d="M1194.5,1843.7c0-4.8,1-9.2,2.9-13.1,1.9-3.9,4.6-6.9,7.9-9,3.4-2.1,7.3-3.2,11.6-3.2,6.7,0,12.2,2.3,16.3,7s6.2,10.9,6.2,18.6v.6c0,4.8-.9,9.1-2.8,13-1.8,3.8-4.5,6.8-7.9,8.9-3.4,2.1-7.4,3.2-11.8,3.2-6.7,0-12.1-2.3-16.3-7s-6.2-10.8-6.2-18.5v-.6ZM1202.7,1844.7c0,5.5,1.3,9.9,3.8,13.3,2.6,3.3,6,5,10.3,5s7.7-1.7,10.3-5.1c2.5-3.4,3.8-8.1,3.8-14.2s-1.3-9.9-3.9-13.2c-2.6-3.4-6-5.1-10.3-5.1s-7.6,1.7-10.1,5c-2.6,3.3-3.9,8.1-3.9,14.3Z"/>
    <path d="M1273.5,1826.6c-1.3-.2-2.8-.3-4.3-.3-5.7,0-9.6,2.4-11.7,7.1v35.6h-8v-50h7.8v5.7c3-4.4,7.1-6.7,12.4-6.7s3,.2,3.9.6v7.9Z"/>
    <path d="M1325.8,1857.2l9.6-38.2h8.5l-14.6,50h-6.9l-12.2-37.9-11.8,37.9h-6.9l-14.5-50h8.5l9.8,37.4,11.6-37.4h6.9l11.9,38.2Z"/>
    <path d="M1382.5,1869c-.5-1-.9-2.7-1.2-5.2-3.9,4.1-8.7,6.2-14.1,6.2s-8.9-1.4-12-4.2c-3.1-2.8-4.7-6.3-4.7-10.5s2-9.2,5.9-12c3.9-2.9,16.6-4.2,16.6-4.2h8.6v-4c0-3.1-.8-5.5-2.5-7.4-1.7-1.8-4.1-2.7-7.4-2.7s-5.2.8-7.2,2.4c-1.9,1.6-2.9,3.5-2.9,5.8h-8c0-2.6.8-5.1,2.5-7.5,1.7-2.4,3.9-4.3,6.7-5.7,2.8-1.4,6-2.1,9.4-2.1,5.4,0,9.6,1.5,12.7,4.5,3.1,3,4.6,7.1,4.8,12.3v22.9s.8,8.2,2,10.9v.7h-9ZM1368.7,1862.6c2.7,0,5.2-.7,7.6-2.1s4.1-3.2,5.2-5.4v-10.2h-6.7c-10.4,0-15.6,3-15.6,9.1s.9,4.7,2.7,6.2c1.8,1.5,4.1,2.2,6.8,2.2Z"/>
    <path d="M1418.3,1856.2l11.6-37.2h9.1l-20,57.3c-3.1,8.3-8,12.4-14.7,12.4h-1.6c0-.1-3.2-.7-3.2-.7v-6.9l2.3.2c2.9,0,5.1-.6,6.7-1.7,1.6-1.2,2.9-3.3,4-6.4l1.9-5-17.7-49.1h9.3l12.4,37.2Z"/>
  </g>
  <g>
    <path d="M1150.9,1958.6c-7.5-2.2-13-4.8-16.4-8-3.4-3.2-5.1-7-5.1-11.7s2.1-9.6,6.3-13c4.2-3.4,9.6-5.1,16.3-5.1s8.6.9,12.2,2.6c3.6,1.8,6.3,4.2,8.3,7.3s2.9,6.5,2.9,10.2h-8.8c0-4-1.3-7.2-3.8-9.5s-6.2-3.5-10.8-3.5-7.7,1-10.1,2.9c-2.4,1.9-3.6,4.6-3.6,7.9s1.1,5,3.4,6.9c2.3,1.9,6.2,3.6,11.7,5.1s9.9,3.3,13,5.1c3.1,1.9,5.4,4.1,6.9,6.6,1.5,2.5,2.3,5.4,2.3,8.8,0,5.4-2.1,9.7-6.3,12.9-4.2,3.2-9.8,4.9-16.9,4.9s-8.8-.9-12.8-2.6c-4-1.8-7-4.1-9.2-7.2-2.1-3-3.2-6.5-3.2-10.4h8.8c0,4,1.5,7.2,4.5,9.5,3,2.3,6.9,3.5,11.9,3.5s8.2-.9,10.6-2.8c2.5-1.9,3.7-4.5,3.7-7.7s-1.1-5.8-3.4-7.6c-2.3-1.8-6.4-3.5-12.4-5.3Z"/>
    <path d="M1226.5,1963.4c0,7.6-1.7,13.6-5.1,18.3-3.4,4.6-8,6.9-13.9,6.9s-10.6-1.9-14-5.7v24.2h-8v-69h7.3l.4,5.5c3.4-4.3,8.1-6.4,14.2-6.4s10.5,2.2,14,6.7c3.4,4.5,5.1,10.8,5.1,18.8v.8ZM1218.5,1963c0-5.6-1.2-10-3.6-13.3-2.4-3.2-5.7-4.9-9.8-4.9s-9,2.3-11.6,6.8v23.7c2.5,4.5,6.4,6.8,11.7,6.8s7.3-1.6,9.7-4.8c2.4-3.2,3.6-8,3.6-14.4Z"/>
    <path d="M1268.1,1988c-.5-.8-.9-2.5-1.2-5-3.9,4.1-8.7,6.2-14.1,6.2s-8.9-1.4-12-4.2c-3.1-2.8-4.7-6.3-4.7-10.5s2-9.2,5.9-12c3.9-2.9,16.6-4.4,16.6-4.4h9v-4c0-3.1-.8-5.5-2.5-7.4-1.7-1.8-4.1-2.7-7.4-2.7s-5.2.8-7.2,2.4c-1.9,1.6-2.9,3.5-2.9,5.8h-8c0-2.6.8-5.1,2.5-7.5,1.7-2.4,3.9-4.3,6.7-5.7,2.8-1.4,6-2.1,9.4-2.1,5.4,0,9.6,1.5,12.7,4.5,3.1,3,4.6,7.1,4.8,12.3v23.1s.4,8.2,2,10.9v.5h-9.4ZM1253.7,1981.6c2.7,0,5.2-.7,7.6-2.1,2.4-1.4,4.1-3.2,5.2-5.4v-10.2h-6.7c-10.4,0-15.6,3-15.6,9.1s.9,4.7,2.7,6.2c1.8,1.5,4.1,2.2,6.8,2.2Z"/>
    <path d="M1288.2,1925.4c0-1.4.4-2.5,1.3-3.5.8-.9,2.1-1.4,3.7-1.4s2.9.5,3.8,1.4c.9.9,1.3,2.1,1.3,3.5s-.4,2.5-1.3,3.4c-.9.9-2.1,1.4-3.8,1.4s-2.9-.5-3.7-1.4c-.8-.9-1.3-2.1-1.3-3.4ZM1297.5,1988h-8v-50h8v50Z"/>
    <path d="M1318.5,1938l.3,6.3c3.8-4.8,8.7-7.2,14.8-7.2,10.5,0,15.8,6,15.9,17.9v33h-9v-32.9c0-3.6-.8-6.2-2.4-7.9-1.6-1.7-4.1-2.6-7.5-2.6s-5.2.7-7.2,2.2c-2.1,1.5-3.7,3.4-4.8,5.8v35.4h-8v-50h8Z"/>
  </g>
  <g>
    <path d="M1150.9,2090.6c-7.5-2.2-13-4.8-16.4-8-3.4-3.2-5.1-7-5.1-11.7s2.1-9.6,6.3-13c4.2-3.4,9.6-5.1,16.3-5.1s8.6.9,12.2,2.6c3.6,1.8,6.3,4.2,8.3,7.3s2.9,6.5,2.9,10.2h-8.8c0-4-1.3-7.2-3.8-9.5s-6.2-3.5-10.8-3.5-7.7,1-10.1,2.9c-2.4,1.9-3.6,4.6-3.6,7.9s1.1,5,3.4,6.9c2.3,1.9,6.2,3.6,11.7,5.1s9.9,3.3,13,5.1c3.1,1.9,5.4,4.1,6.9,6.6,1.5,2.5,2.3,5.4,2.3,8.8,0,5.4-2.1,9.7-6.3,12.9-4.2,3.2-9.8,4.9-16.9,4.9s-8.8-.9-12.8-2.6c-4-1.8-7-4.1-9.2-7.2-2.1-3-3.2-6.5-3.2-10.4h8.8c0,4,1.5,7.2,4.5,9.5,3,2.3,6.9,3.5,11.9,3.5s8.2-.9,10.6-2.8c2.5-1.9,3.7-4.5,3.7-7.7s-1.1-5.8-3.4-7.6c-2.3-1.8-6.4-3.5-12.4-5.3Z"/>
    <path d="M1229.3,2108.2l9.6-38.2h8.5l-14.6,50h-6.9l-12.2-37.9-11.8,37.9h-6.9l-14.5-50h8.5l9.8,37.4,11.6-37.4h6.9l11.9,38.2Z"/>
    <path d="M1255.4,2057.2c0-1.4.4-2.5,1.3-3.5.8-.9,2.1-1.4,3.7-1.4s2.9.5,3.8,1.4c.9.9,1.3,2.1,1.3,3.5s-.4,2.5-1.3,3.4-2.1,1.4-3.8,1.4-2.9-.5-3.7-1.4c-.8-.9-1.3-2.1-1.3-3.4ZM1264.5,2120h-8v-50h8v50Z"/>
    <path d="M1288.5,2058v12h10v7h-10v30.8c0,2,.4,3.5,1.3,4.5s2.4,1.5,4.4,1.5,2.4-.2,4.3-.6v6.8c-2.2.6-4.4.9-6.5.9-3.8,0-6.7-1.1-8.6-3.4s-2.9-5.6-2.9-9.8v-30.7h-9v-7h9v-12h8Z"/>
    <path d="M1316.3,2113h28.2v7h-39v-6.2l27.4-36.8h-26.4v-7h37v6.1l-27.2,36.9Z"/>
    <path d="M1374.2,2121.3c-6.7,0-12.2-2.2-16.4-6.6-4.2-4.4-6.3-10.3-6.3-17.7v-1.6c0-4.9.9-9.3,2.8-13.2,1.9-3.9,4.5-6.9,7.9-9.1,3.4-2.2,7-3.3,11-3.3,6.4,0,11.4,2.1,15,6.4,3.6,4.3,5.4,10.3,5.4,18.3v3.5h-33.5c.1,4.9,1.5,8.9,4.3,11.9s6.2,4.5,10.4,4.5,5.5-.6,7.6-1.8c2.1-1.2,3.9-2.8,5.4-4.9l5.2,4c-4.1,6.4-10.4,9.6-18.7,9.6ZM1373.6,2076.8c-3.4,0-6.3,1.2-8.6,3.7-2.3,2.5-3.8,6-4.3,10.5h24.9v-.6c-.2-4.3-1.4-7.7-3.5-10-2.1-2.4-4.9-3.6-8.4-3.6Z"/>
    <path d="M1427.5,2077.6c-1.3-.2-2.8-.3-4.3-.3-5.7,0-9.6,2.4-11.7,7.1v35.6h-8v-50h7.8v5.7c3-4.4,7.1-6.7,12.4-6.7s3,.2,3.9.6v7.9Z"/>
    <path d="M1443.5,2120h-8v-71h8v71Z"/>
    <path d="M1487.7,2120c-.5-.9-.9-2.7-1.2-5.2-3.9,4.1-8.7,6.2-14.1,6.2s-8.9-1.4-12-4.2c-3.1-2.8-4.7-6.3-4.7-10.5s2-9.2,5.9-12c3.9-2.9,16.6-4.2,16.6-4.2h8.4v-4c0-3.1-.8-5.5-2.5-7.4-1.7-1.8-4.1-2.7-7.4-2.7s-5.2.8-7.2,2.4c-1.9,1.6-2.9,3.5-2.9,5.8h-8c0-2.6.8-5.1,2.5-7.5,1.7-2.4,3.9-4.3,6.7-5.7,2.8-1.4,6-2.1,9.4-2.1,5.4,0,9.6,1.5,12.7,4.5,3.1,3,4.6,7.1,4.8,12.3v23s1,8.2,2,10.9v.7h-8.8ZM1473.7,2113.6c2.7,0,5.2-.7,7.6-2.1s4.1-3.2,5.2-5.4v-10.2h-6.7c-10.4,0-15.6,3-15.6,9.1s.9,4.7,2.7,6.2c1.8,1.5,4.1,2.2,6.8,2.2Z"/>
    <path d="M1515.5,2070l.3,6.3c3.8-4.8,8.7-7.2,14.8-7.2,10.5,0,15.8,6,15.9,17.9v33h-8v-32.9c0-3.6-.8-6.2-2.4-7.9-1.6-1.7-4.1-2.6-7.5-2.6s-5.2.7-7.2,2.2c-2.1,1.5-3.7,3.4-4.8,5.8v35.4h-9v-50h8Z"/>
    <path d="M1557.5,2094.8c0-7.6,1.8-13.7,5.3-18.4,3.6-4.6,8.2-7,14-7s10.3,2,13.6,6v-26.4h8v71h-7.3l-.4-5.3c-3.4,4.2-8,6.2-14,6.2s-10.3-2.4-13.9-7.1c-3.6-4.7-5.4-10.9-5.4-18.5v-.6ZM1565.6,2095.8c0,5.6,1.2,10,3.5,13.2,2.3,3.2,5.5,4.8,9.6,4.8s9.3-2.4,11.8-7.3v-22.8c-2.5-4.7-6.4-7-11.7-7s-7.4,1.6-9.7,4.8c-2.3,3.2-3.5,8-3.5,14.3Z"/>
  </g>
  <g>
    <path d="M1168.5,2212h-28v30h-9v-67h41v7h-33l1,23h28v7Z"/>
    <path d="M1181.4,2178.6c0-1.4.4-2.5,1.3-3.5.8-.9,2.1-1.4,3.7-1.4s2.9.5,3.8,1.4c.9.9,1.3,2.1,1.3,3.5s-.4,2.5-1.3,3.4c-.9.9-2.1,1.4-3.8,1.4s-2.9-.5-3.7-1.4c-.8-.9-1.3-2.1-1.3-3.4ZM1190.5,2242h-8v-50h8v50Z"/>
    <path d="M1211.5,2192l.3,6.3c3.8-4.8,8.7-7.2,14.8-7.2,10.5,0,15.8,6,15.9,17.9v33h-8v-32.9c0-3.6-.8-6.2-2.4-7.9-1.6-1.7-4.1-2.6-7.5-2.6s-5.2.7-7.2,2.2c-2.1,1.5-3.7,3.4-4.8,5.8v35.4h-9v-50h8Z"/>
    <path d="M1264.5,2242h-8v-71h8v71Z"/>
    <path d="M1308.1,2241c-.5-.6-.9-2.3-1.2-4.8-3.9,4.1-8.7,6.2-14.1,6.2s-8.9-1.4-12-4.2c-3.1-2.8-4.7-6.3-4.7-10.5s2-9.2,5.9-12c3.9-2.9,16.6-4.6,16.6-4.6h9v-4c0-3.1-.8-5.5-2.5-7.4-1.7-1.8-4.1-2.7-7.4-2.7s-5.2.8-7.2,2.4c-1.9,1.6-2.9,3.5-2.9,5.8h-8c0-2.6.8-5.1,2.5-7.5,1.7-2.4,3.9-4.3,6.7-5.7,2.8-1.4,6-2.1,9.4-2.1,5.4,0,9.6,1.5,12.7,4.5,3.1,3,4.6,7.1,4.8,12.3v23.3s.4,8.2,2,10.9v.3h-9.4ZM1293.7,2234.6c2.7,0,5.2-.7,7.6-2.1s4.1-3.2,5.2-5.4v-10.2h-6.7c-10.4,0-15.6,3-15.6,9.1s.9,4.7,2.7,6.2c1.8,1.5,4.1,2.2,6.8,2.2Z"/>
    <path d="M1336.5,2192l.3,6.3c3.8-4.8,8.7-7.2,14.8-7.2,10.5,0,15.8,6,15.9,17.9v33h-9v-32.9c0-3.6-.8-6.2-2.4-7.9-1.6-1.7-4.1-2.6-7.5-2.6s-5.2.7-7.2,2.2c-2.1,1.5-3.7,3.4-4.8,5.8v35.4h-8v-50h8Z"/>
    <path d="M1377.5,2216.8c0-7.6,1.8-13.7,5.5-18.4,3.7-4.6,8.5-7,14.4-7s10.6,2,14.1,6v-26.4h8v71h-7.3l-.4-5.3c-3.5,4.2-8.3,6.2-14.4,6.2s-10.6-2.4-14.3-7.1c-3.7-4.7-5.5-10.9-5.5-18.5v-.6ZM1385.6,2217.1c0,5.6,1.2,10,3.5,13.2,2.3,3.2,5.5,4.8,9.6,4.8s9.3-2.4,11.8-7.3v-22.8c-2.5-4.7-6.4-7-11.7-7s-7.4,1.6-9.7,4.8c-2.3,3.2-3.5,8-3.5,14.3Z"/>
  </g>
  <g>
    <path class="st13" d="M1047.1,1845.6c0,25.1-20.4,45.5-45.5,45.5s-45.5-20.4-45.5-45.5,20.4-45.5,45.5-45.5,45.5,20.4,45.5,45.5" vector-effect="non-scaling-stroke"/>
    <path d="M1001.6,1895.1c-27.3,0-49.5-22.2-49.5-49.5s22.2-49.5,49.5-49.5,49.5,22.2,49.5,49.5-22.2,49.5-49.5,49.5ZM1001.6,1804.1c-22.9,0-41.5,18.6-41.5,41.5s18.6,41.5,41.5,41.5,41.5-18.6,41.5-41.5-18.6-41.5-41.5-41.5Z"/>
  </g>
  <g>
    <path class="st9" d="M1047.1,1721.2c0,25.1-20.4,45.5-45.5,45.5s-45.5-20.4-45.5-45.5,20.4-45.5,45.5-45.5,45.5,20.4,45.5,45.5" vector-effect="non-scaling-stroke"/>
    <path d="M1001.6,1770.7c-27.3,0-49.5-22.2-49.5-49.5s22.2-49.5,49.5-49.5,49.5,22.2,49.5,49.5-22.2,49.5-49.5,49.5ZM1001.6,1679.7c-22.9,0-41.5,18.6-41.5,41.5s18.6,41.5,41.5,41.5,41.5-18.6,41.5-41.5-18.6-41.5-41.5-41.5Z"/>
  </g>
  <g>
    <path class="st11" d="M1047.1,1963.9c0,25.1-20.4,45.5-45.5,45.5s-45.5-20.4-45.5-45.5,20.4-45.5,45.5-45.5,45.5,20.4,45.5,45.5" vector-effect="non-scaling-stroke"/>
    <path d="M1001.6,2013.4c-27.3,0-49.5-22.2-49.5-49.5s22.2-49.5,49.5-49.5,49.5,22.2,49.5,49.5-22.2,49.5-49.5,49.5ZM1001.6,1922.4c-22.9,0-41.5,18.6-41.5,41.5s18.6,41.5,41.5,41.5,41.5-18.6,41.5-41.5-18.6-41.5-41.5-41.5Z"/>
  </g>
  <g>
    <path class="st10" d="M1047.1,2085.3c0,25.1-20.4,45.5-45.5,45.5s-45.5-20.4-45.5-45.5,20.4-45.5,45.5-45.5,45.5,20.4,45.5,45.5" vector-effect="non-scaling-stroke"/>
    <path d="M1001.6,2134.8c-27.3,0-49.5-22.2-49.5-49.5s22.2-49.5,49.5-49.5,49.5,22.2,49.5,49.5-22.2,49.5-49.5,49.5ZM1001.6,2043.7c-22.9,0-41.5,18.6-41.5,41.5s18.6,41.5,41.5,41.5,41.5-18.6,41.5-41.5-18.6-41.5-41.5-41.5Z"/>
  </g>
  <g>
    <path class="st12" d="M1047.1,2206.6c0,25.1-20.4,45.5-45.5,45.5s-45.5-20.4-45.5-45.5,20.4-45.5,45.5-45.5,45.5,20.4,45.5,45.5" vector-effect="non-scaling-stroke"/>
    <path d="M1001.6,2256.1c-27.3,0-49.5-22.2-49.5-49.5s22.2-49.5,49.5-49.5,49.5,22.2,49.5,49.5-22.2,49.5-49.5,49.5ZM1001.6,2165.1c-22.9,0-41.5,18.6-41.5,41.5s18.6,41.5,41.5,41.5,41.5-18.6,41.5-41.5-18.6-41.5-41.5-41.5Z"/>
  </g>
</svg>